<svg width="4194" height="1036" xmlns="http://www.w3.org/2000/svg" xmlns:xlink="http://www.w3.org/1999/xlink" xml:space="preserve" overflow="hidden"><defs><clipPath id="clip0"><rect x="105" y="719" width="4194" height="1036"/></clipPath><clipPath id="clip1"><rect x="105" y="719" width="4194" height="1036"/></clipPath><clipPath id="clip2"><rect x="374" y="894" width="659" height="648"/></clipPath></defs><g clip-path="url(#clip0)" transform="translate(-105 -719)"><g clip-path="url(#clip1)"><g><path d="M0 0 0.000360892 645" stroke="#898989" stroke-width="4.58333" stroke-linecap="butt" stroke-linejoin="round" stroke-miterlimit="10" stroke-opacity="1" fill="none" fill-rule="evenodd" transform="matrix(1 0 0 -1 374.5 1539.5)"/></g><g><path d="M360.5 1539.5 374.5 1539.5M360.5 1324.54 374.5 1324.54M360.5 1109.54 374.5 1109.54M360.5 894.5 374.5 894.5" stroke="#898989" stroke-width="4.58333" stroke-linecap="butt" stroke-linejoin="round" stroke-miterlimit="10" stroke-opacity="1" fill="none" fill-rule="nonzero"/></g><g><path d="M374.5 1539.5 1029.5 1539.5" stroke="#898989" stroke-width="4.58333" stroke-linecap="butt" stroke-linejoin="round" stroke-miterlimit="10" stroke-opacity="1" fill="none" fill-rule="evenodd"/></g><g><path d="M374.5 1539.5 374.5 1553.5M544.518 1539.5 544.518 1553.5M715.524 1539.5 715.524 1553.5M885.5 1539.5 885.5 1553.5" stroke="#898989" stroke-width="4.58333" stroke-linecap="butt" stroke-linejoin="round" stroke-miterlimit="10" stroke-opacity="1" fill="none" fill-rule="nonzero"/></g><g clip-path="url(#clip2)"><path d="M375 1539 383.013 1531.05 392.013 1522.05 400.013 1513.05 409.013 1505.05 417.014 1496.05 426.014 1488.05 434.014 1479.05 443.015 1470.05 451.015 1462.05 460.015 1453.05 468.015 1445.05 477.016 1436.05 485.016 1427.05 494.016 1419.05 502.016 1410.05 511.017 1402.05 519.017 1393.05 528.017 1384.05 536.018 1376.05 545.018 1367.04 553.018 1359.04 562.018 1350.04 570.019 1342.04 579.019 1333.04 587.019 1324.04 596.02 1316.04 604.02 1307.04 613.02 1299.04 621.02 1290.04 630.021 1281.04 638.021 1273.04 647.021 1264.04 656.022 1256.04 664.022 1247.04 673.022 1238.04 681.022 1230.04 690.023 1221.04 698.023 1213.04 707.023 1204.04 715.023 1195.04 724.024 1187.04 732.024 1178.04 741.024 1170.04 749.025 1161.04 758.025 1152.04 766.025 1144.04 775.025 1135.04 783.026 1127.04 792.026 1118.04 800.026 1109.04 809.027 1101.04 817.027 1092.04 826.027 1084.04 834.027 1075.04 843.028 1066.03 851.028 1058.03 860.028 1049.03 868.029 1041.03 877.029 1032.03 885.029 1024.03 894.029 1015.03 902.03 1006.03 911.03 998.033 919.03 989.032 928.03 981.032 936.031 972.032 945.031 963.032 953.031 955.031 962.032 946.031 970.032 938.031 979.032 929.03 987.032 920.03 996.033 912.03 1004.03 903.03 1013.03 895.029 1021.03 886.029 1030 877" stroke="#5F5F5F" stroke-width="13.75" stroke-linecap="round" stroke-linejoin="round" stroke-miterlimit="10" stroke-opacity="1" fill="none" fill-rule="nonzero"/></g><g><text fill="#000000" fill-opacity="1" font-family="Aptos,Aptos_MSFontService,sans-serif" font-style="normal" font-variant="normal" font-weight="400" font-stretch="normal" font-size="46" text-anchor="start" direction="ltr" writing-mode="lr-tb" unicode-bidi="normal" text-decoration="none" transform="matrix(1 0 0 1 308.115 1551)">0</text></g><g><text fill="#000000" fill-opacity="1" font-family="Aptos,Aptos_MSFontService,sans-serif" font-style="normal" font-variant="normal" font-weight="400" font-stretch="normal" font-size="46" text-anchor="start" direction="ltr" writing-mode="lr-tb" unicode-bidi="normal" text-decoration="none" transform="matrix(1 0 0 1 259.165 1336)">500</text></g><g><text fill="#000000" fill-opacity="1" font-family="Aptos,Aptos_MSFontService,sans-serif" font-style="normal" font-variant="normal" font-weight="400" font-stretch="normal" font-size="46" text-anchor="start" direction="ltr" writing-mode="lr-tb" unicode-bidi="normal" text-decoration="none" transform="matrix(1 0 0 1 234.69 1121)">1000</text></g><g><text fill="#000000" fill-opacity="1" font-family="Aptos,Aptos_MSFontService,sans-serif" font-style="normal" font-variant="normal" font-weight="400" font-stretch="normal" font-size="46" text-anchor="start" direction="ltr" writing-mode="lr-tb" unicode-bidi="normal" text-decoration="none" transform="matrix(1 0 0 1 234.69 906)">1500</text></g><g><text fill="#000000" fill-opacity="1" font-family="Aptos,Aptos_MSFontService,sans-serif" font-style="normal" font-variant="normal" font-weight="400" font-stretch="normal" font-size="46" text-anchor="start" direction="ltr" writing-mode="lr-tb" unicode-bidi="normal" text-decoration="none" transform="matrix(1 0 0 1 362.668 1611)">1</text></g><g><text fill="#000000" fill-opacity="1" font-family="Aptos,Aptos_MSFontService,sans-serif" font-style="normal" font-variant="normal" font-weight="400" font-stretch="normal" font-size="46" text-anchor="start" direction="ltr" writing-mode="lr-tb" unicode-bidi="normal" text-decoration="none" transform="matrix(1 0 0 1 520.505 1611)">21</text></g><g><text fill="#000000" fill-opacity="1" font-family="Aptos,Aptos_MSFontService,sans-serif" font-style="normal" font-variant="normal" font-weight="400" font-stretch="normal" font-size="46" text-anchor="start" direction="ltr" writing-mode="lr-tb" unicode-bidi="normal" text-decoration="none" transform="matrix(1 0 0 1 690.579 1611)">41</text></g><g><text fill="#000000" fill-opacity="1" font-family="Aptos,Aptos_MSFontService,sans-serif" font-style="normal" font-variant="normal" font-weight="400" font-stretch="normal" font-size="46" text-anchor="start" direction="ltr" writing-mode="lr-tb" unicode-bidi="normal" text-decoration="none" transform="matrix(1 0 0 1 860.654 1611)">61</text></g><g><text fill="#595959" fill-opacity="1" font-family="Aptos,Aptos_MSFontService,sans-serif" font-style="normal" font-variant="normal" font-weight="400" font-stretch="normal" font-size="46" text-anchor="start" direction="ltr" writing-mode="lr-tb" unicode-bidi="normal" text-decoration="none" transform="matrix(6.12323e-17 -1 1 6.12323e-17 207.992 1381)">Arriving Users / s</text></g><g><text fill="#595959" fill-opacity="1" font-family="Aptos,Aptos_MSFontService,sans-serif" font-style="normal" font-variant="normal" font-weight="400" font-stretch="normal" font-size="46" text-anchor="start" direction="ltr" writing-mode="lr-tb" unicode-bidi="normal" text-decoration="none" transform="matrix(1 0 0 1 625.012 1681)">Time (s)</text></g><g><text fill="#595959" fill-opacity="1" font-family="Aptos,Aptos_MSFontService,sans-serif" font-style="normal" font-variant="normal" font-weight="400" font-stretch="normal" font-size="64" text-anchor="start" direction="ltr" writing-mode="lr-tb" unicode-bidi="normal" text-decoration="none" transform="matrix(1 0 0 1 462.309 819)">Scalability</text></g><rect x="108.5" y="724.5" width="997" height="1027" stroke="#000000" stroke-width="4.58333" stroke-linecap="butt" stroke-linejoin="miter" stroke-miterlimit="8" stroke-opacity="1" fill="none"/><g><path d="M0 0 0.000360892 645" stroke="#898989" stroke-width="4.58333" stroke-linecap="butt" stroke-linejoin="round" stroke-miterlimit="10" stroke-opacity="1" fill="none" fill-rule="evenodd" transform="matrix(1 0 0 -1 1437.5 1539.5)"/></g><g><path d="M1423.5 1539.5 1437.5 1539.5M1423.5 1216.54 1437.5 1216.54M1423.5 894.5 1437.5 894.5" stroke="#898989" stroke-width="4.58333" stroke-linecap="butt" stroke-linejoin="round" stroke-miterlimit="10" stroke-opacity="1" fill="none" fill-rule="nonzero"/></g><g><path d="M1437.5 1539.5 2098.5 1539.5" stroke="#898989" stroke-width="4.58333" stroke-linecap="butt" stroke-linejoin="round" stroke-miterlimit="10" stroke-opacity="1" fill="none" fill-rule="evenodd"/></g><g><path d="M1437.5 1539.5 1437.5 1553.5M1602.55 1539.5 1602.55 1553.5M1767.56 1539.5 1767.56 1553.5M1932.56 1539.5 1932.56 1553.5M2098.5 1539.5 2098.5 1553.5" stroke="#898989" stroke-width="4.58333" stroke-linecap="butt" stroke-linejoin="round" stroke-miterlimit="10" stroke-opacity="1" fill="none" fill-rule="nonzero"/></g><g><path d="M1442 1539 1450.05 1507.05 1458.05 1475.05 1466.05 1442.05 1475.05 1410.05 1483.05 1378.05 1491.05 1346.04 1499.05 1314.04 1508.05 1281.04 1516.05 1249.04 1524.05 1217.04 1532.05 1185.04 1541.05 1152.04 1549.05 1120.04 1557.05 1088.04 1565.05 1056.03 1574.05 1024.03 1582.05 991 1590.05 1539 1598.05 1539 1607.05 1539 1615.05 1539 1623.05 1539 1632.05 1539 1640.05 1539 1648.05 1539 1656.05 1507.05 1665.05 1475.05 1673.05 1442.05 1681.06 1410.05 1689.06 1378.05 1698.06 1346.04 1706.06 1314.04 1714.06 1281.04 1722.06 1249.04 1731.06 1217.04 1739.06 1185.04 1747.06 1152.04 1755.06 1120.04 1764.06 1088.04 1772.06 1056.03 1780.06 1024.03 1788.06 991 1797.06 1539 1805.06 1539 1813.06 1539 1821.06 1539 1830.06 1539 1838.06 1539 1846.06 1539 1854.06 1539 1863.06 1539 1871.06 1507.05 1879.06 1475.05 1888.06 1442.05 1896.06 1410.05 1904.06 1378.05 1912.06 1346.04 1921.06 1314.04 1929.06 1281.04 1937.06 1249.04 1945.06 1217.04 1954.06 1185.04 1962.06 1152.04 1970.06 1120.04 1978.06 1088.04 1987.07 1056.03 1995.07 1024.03 2003.07 991 2011.07 1539 2020.07 1539 2028.07 1539 2036.07 1539 2044.07 1539 2053.07 1539 2061.07 1539 2069.07 1539 2078 1539" stroke="#959595" stroke-width="13.75" stroke-linecap="round" stroke-linejoin="round" stroke-miterlimit="10" stroke-opacity="1" fill="none" fill-rule="nonzero"/></g><g><path d="M1442 1539 1450.05 1507.05 1458.05 1475.05 1466.05 1442.05 1475.05 1410.05 1483.05 1378.05 1491.05 1346.04 1499.05 1314.04 1508.05 1281.04 1516.05 1249.04 1524.05 1217.04 1532.05 1185.04 1541.05 1152.04 1549.05 1120.04 1557.05 1088.04 1565.05 1056.03 1574.05 1024.03 1582.05 991 1590.05 1539 1598.05 1539 1607.05 1539 1615.05 1539 1623.05 1539 1632.05 1539 1640.05 1539 1648.05 1539 1656.05 1507.05 1665.05 1475.05 1673.05 1442.05 1681.06 1410.05 1689.06 1378.05 1698.06 1346.04 1706.06 1314.04 1714.06 1281.04 1722.06 1249.04 1731.06 1217.04 1739.06 1185.04 1747.06 1152.04 1755.06 1120.04 1764.06 1088.04 1772.06 1056.03 1780.06 1024.03 1788.06 991 1797.06 1539 1805.06 1539 1813.06 1539 1821.06 1539 1830.06 1539 1838.06 1539 1846.06 1539 1854.06 1539 1863.06 1539 1871.06 1507.05 1879.06 1475.05 1888.06 1442.05 1896.06 1410.05 1904.06 1378.05 1912.06 1346.04 1921.06 1314.04 1929.06 1281.04 1937.06 1249.04 1945.06 1217.04 1954.06 1185.04 1962.06 1152.04 1970.06 1120.04 1978.06 1088.04 1987.07 1056.03 1995.07 1024.03 2003.07 991 2011.07 1539 2020.07 1539 2028.07 1539 2036.07 1539 2044.07 1539 2053.07 1539 2061.07 1539 2069.07 1539 2078 1539" stroke="#818181" stroke-width="13.75" stroke-linecap="round" stroke-linejoin="round" stroke-miterlimit="10" stroke-opacity="1" fill="none" fill-rule="nonzero"/></g><g><text fill="#000000" fill-opacity="1" font-family="Aptos,Aptos_MSFontService,sans-serif" font-style="normal" font-variant="normal" font-weight="400" font-stretch="normal" font-size="46" text-anchor="start" direction="ltr" writing-mode="lr-tb" unicode-bidi="normal" text-decoration="none" transform="matrix(1 0 0 1 1370.68 1551)">0</text></g><g><text fill="#000000" fill-opacity="1" font-family="Aptos,Aptos_MSFontService,sans-serif" font-style="normal" font-variant="normal" font-weight="400" font-stretch="normal" font-size="46" text-anchor="start" direction="ltr" writing-mode="lr-tb" unicode-bidi="normal" text-decoration="none" transform="matrix(1 0 0 1 1321.73 1229)">500</text></g><g><text fill="#000000" fill-opacity="1" font-family="Aptos,Aptos_MSFontService,sans-serif" font-style="normal" font-variant="normal" font-weight="400" font-stretch="normal" font-size="46" text-anchor="start" direction="ltr" writing-mode="lr-tb" unicode-bidi="normal" text-decoration="none" transform="matrix(1 0 0 1 1297.26 906)">1000</text></g><g><text fill="#000000" fill-opacity="1" font-family="Aptos,Aptos_MSFontService,sans-serif" font-style="normal" font-variant="normal" font-weight="400" font-stretch="normal" font-size="46" text-anchor="start" direction="ltr" writing-mode="lr-tb" unicode-bidi="normal" text-decoration="none" transform="matrix(1 0 0 1 1429.37 1611)">1</text></g><g><text fill="#000000" fill-opacity="1" font-family="Aptos,Aptos_MSFontService,sans-serif" font-style="normal" font-variant="normal" font-weight="400" font-stretch="normal" font-size="46" text-anchor="start" direction="ltr" writing-mode="lr-tb" unicode-bidi="normal" text-decoration="none" transform="matrix(1 0 0 1 1582.31 1611)">21</text></g><g><text fill="#000000" fill-opacity="1" font-family="Aptos,Aptos_MSFontService,sans-serif" font-style="normal" font-variant="normal" font-weight="400" font-stretch="normal" font-size="46" text-anchor="start" direction="ltr" writing-mode="lr-tb" unicode-bidi="normal" text-decoration="none" transform="matrix(1 0 0 1 1747.49 1611)">41</text></g><g><text fill="#000000" fill-opacity="1" font-family="Aptos,Aptos_MSFontService,sans-serif" font-style="normal" font-variant="normal" font-weight="400" font-stretch="normal" font-size="46" text-anchor="start" direction="ltr" writing-mode="lr-tb" unicode-bidi="normal" text-decoration="none" transform="matrix(1 0 0 1 1912.68 1611)">61</text></g><g><text fill="#595959" fill-opacity="1" font-family="Aptos,Aptos_MSFontService,sans-serif" font-style="normal" font-variant="normal" font-weight="400" font-stretch="normal" font-size="46" text-anchor="start" direction="ltr" writing-mode="lr-tb" unicode-bidi="normal" text-decoration="none" transform="matrix(6.12323e-17 -1 1 6.12323e-17 1270.56 1381)">Arriving Users / s</text></g><g><text fill="#595959" fill-opacity="1" font-family="Aptos,Aptos_MSFontService,sans-serif" font-style="normal" font-variant="normal" font-weight="400" font-stretch="normal" font-size="46" text-anchor="start" direction="ltr" writing-mode="lr-tb" unicode-bidi="normal" text-decoration="none" transform="matrix(1 0 0 1 1690.55 1681)">Time (s)</text></g><g><text fill="#595959" fill-opacity="1" font-family="Aptos,Aptos_MSFontService,sans-serif" font-style="normal" font-variant="normal" font-weight="400" font-stretch="normal" font-size="64" text-anchor="start" direction="ltr" writing-mode="lr-tb" unicode-bidi="normal" text-decoration="none" transform="matrix(1 0 0 1 1542.65 819)">Elasticity</text></g><rect x="1170.5" y="724.5" width="997" height="1027" stroke="#000000" stroke-width="4.58333" stroke-linecap="butt" stroke-linejoin="miter" stroke-miterlimit="8" stroke-opacity="1" fill="none"/><g><path d="M0 0 0.000360892 645" stroke="#898989" stroke-width="4.58333" stroke-linecap="butt" stroke-linejoin="round" stroke-miterlimit="10" stroke-opacity="1" fill="none" fill-rule="evenodd" transform="matrix(1 0 0 -1 2500.5 1539.5)"/></g><g><path d="M2485.5 1539.5 2500.5 1539.5M2485.5 1324.54 2500.5 1324.54M2485.5 1109.54 2500.5 1109.54M2485.5 894.5 2500.5 894.5" stroke="#898989" stroke-width="4.58333" stroke-linecap="butt" stroke-linejoin="round" stroke-miterlimit="10" stroke-opacity="1" fill="none" fill-rule="nonzero"/></g><g><path d="M2500.5 1539.5 3160.5 1539.5" stroke="#898989" stroke-width="4.58333" stroke-linecap="butt" stroke-linejoin="round" stroke-miterlimit="10" stroke-opacity="1" fill="none" fill-rule="evenodd"/></g><g><path d="M2500.5 1539.5 2500.5 1553.5M2669.59 1539.5 2669.59 1553.5M2838.59 1539.5 2838.59 1553.5M3008.5 1539.5 3008.5 1553.5" stroke="#898989" stroke-width="4.58333" stroke-linecap="butt" stroke-linejoin="round" stroke-miterlimit="10" stroke-opacity="1" fill="none" fill-rule="nonzero"/></g><g><path d="M2504 1539 2513.08 1535.05 2521.08 1531.05 2530.08 1526.05 2538.08 1522.05 2547.08 1518.05 2555.08 1513.05 2564.08 1509.05 2572.08 1505.05 2580.08 1500.05 2589.08 1496.05 2597.09 1539 2606.09 1539 2614.09 1539 2623.09 1539 2631.09 1539 2640.09 1539 2648.09 1539 2657.09 1539 2665.09 1539 2674.09 1496.05 2682.09 1410.05 2691.09 1281.04 2699.09 1152.04 2708.09 1024 2716.09 1152.04 2724.09 1281.04 2733.09 1367.04 2741.09 1453.05 2750.09 1539 2758.09 1539 2767.09 1539 2775.09 1539 2784.09 1539 2792.09 1539 2801.09 1539 2809.09 1539 2818.09 1539 2826.09 1539 2835.09 1539 2843.09 1539 2852.09 1453.05 2860.09 1453.05 2869.09 1453.05 2877.09 1453.05 2885.09 1453.05 2894.09 1453.05 2902.1 1453.05 2911.1 1453.05 2919.1 1453.05 2928.1 1453.05 2936.1 1453.05 2945.1 1453.05 2953.1 1453.05 2962.1 1453.05 2970.1 1453.05 2979.1 1453.05 2987.1 1453.05 2996.1 1453.05 3004.1 1453.05 3013.1 1453.05 3021.1 1453.05 3029.1 1453.05 3038.1 1453.05 3046.1 1453.05 3055.1 1539 3063.1 1539 3072.1 1539 3080.1 1539 3089.1 1539 3097.1 1539 3106.1 1539 3114.1 1539 3123.1 1539 3131.1 1539 3140.1 1539 3148.1 1539 3157 1539" stroke="#818181" stroke-width="13.75" stroke-linecap="round" stroke-linejoin="round" stroke-miterlimit="10" stroke-opacity="1" fill="none" fill-rule="nonzero"/></g><g><text fill="#000000" fill-opacity="1" font-family="Aptos,Aptos_MSFontService,sans-serif" font-style="normal" font-variant="normal" font-weight="400" font-stretch="normal" font-size="46" text-anchor="start" direction="ltr" writing-mode="lr-tb" unicode-bidi="normal" text-decoration="none" transform="matrix(1 0 0 1 2433.25 1551)">0</text></g><g><text fill="#000000" fill-opacity="1" font-family="Aptos,Aptos_MSFontService,sans-serif" font-style="normal" font-variant="normal" font-weight="400" font-stretch="normal" font-size="46" text-anchor="start" direction="ltr" writing-mode="lr-tb" unicode-bidi="normal" text-decoration="none" transform="matrix(1 0 0 1 2359.83 1336)">1000</text></g><g><text fill="#000000" fill-opacity="1" font-family="Aptos,Aptos_MSFontService,sans-serif" font-style="normal" font-variant="normal" font-weight="400" font-stretch="normal" font-size="46" text-anchor="start" direction="ltr" writing-mode="lr-tb" unicode-bidi="normal" text-decoration="none" transform="matrix(1 0 0 1 2359.83 1121)">2000</text></g><g><text fill="#000000" fill-opacity="1" font-family="Aptos,Aptos_MSFontService,sans-serif" font-style="normal" font-variant="normal" font-weight="400" font-stretch="normal" font-size="46" text-anchor="start" direction="ltr" writing-mode="lr-tb" unicode-bidi="normal" text-decoration="none" transform="matrix(1 0 0 1 2359.83 906)">3000</text></g><g><text fill="#000000" fill-opacity="1" font-family="Aptos,Aptos_MSFontService,sans-serif" font-style="normal" font-variant="normal" font-weight="400" font-stretch="normal" font-size="46" text-anchor="start" direction="ltr" writing-mode="lr-tb" unicode-bidi="normal" text-decoration="none" transform="matrix(1 0 0 1 2492.04 1611)">1</text></g><g><text fill="#000000" fill-opacity="1" font-family="Aptos,Aptos_MSFontService,sans-serif" font-style="normal" font-variant="normal" font-weight="400" font-stretch="normal" font-size="46" text-anchor="start" direction="ltr" writing-mode="lr-tb" unicode-bidi="normal" text-decoration="none" transform="matrix(1 0 0 1 2649.26 1611)">21</text></g><g><text fill="#000000" fill-opacity="1" font-family="Aptos,Aptos_MSFontService,sans-serif" font-style="normal" font-variant="normal" font-weight="400" font-stretch="normal" font-size="46" text-anchor="start" direction="ltr" writing-mode="lr-tb" unicode-bidi="normal" text-decoration="none" transform="matrix(1 0 0 1 2818.72 1611)">41</text></g><g><text fill="#000000" fill-opacity="1" font-family="Aptos,Aptos_MSFontService,sans-serif" font-style="normal" font-variant="normal" font-weight="400" font-stretch="normal" font-size="46" text-anchor="start" direction="ltr" writing-mode="lr-tb" unicode-bidi="normal" text-decoration="none" transform="matrix(1 0 0 1 2988.18 1611)">61</text></g><g><text fill="#595959" fill-opacity="1" font-family="Aptos,Aptos_MSFontService,sans-serif" font-style="normal" font-variant="normal" font-weight="400" font-stretch="normal" font-size="46" text-anchor="start" direction="ltr" writing-mode="lr-tb" unicode-bidi="normal" text-decoration="none" transform="matrix(6.12323e-17 -1 1 6.12323e-17 2333.13 1381)">Arriving Users / s</text></g><g><text fill="#595959" fill-opacity="1" font-family="Aptos,Aptos_MSFontService,sans-serif" font-style="normal" font-variant="normal" font-weight="400" font-stretch="normal" font-size="46" text-anchor="start" direction="ltr" writing-mode="lr-tb" unicode-bidi="normal" text-decoration="none" transform="matrix(1 0 0 1 2753.2 1681)">Time (s)</text></g><g><text fill="#595959" fill-opacity="1" font-family="Aptos,Aptos_MSFontService,sans-serif" font-style="normal" font-variant="normal" font-weight="400" font-stretch="normal" font-size="64" text-anchor="start" direction="ltr" writing-mode="lr-tb" unicode-bidi="normal" text-decoration="none" transform="matrix(1 0 0 1 2587.33 819)">Resilience</text></g><rect x="2233.5" y="724.5" width="997" height="1027" stroke="#000000" stroke-width="4.58333" stroke-linecap="butt" stroke-linejoin="miter" stroke-miterlimit="8" stroke-opacity="1" fill="none"/><g><path d="M0 0 0.000360892 645" stroke="#898989" stroke-width="4.58333" stroke-linecap="butt" stroke-linejoin="round" stroke-miterlimit="10" stroke-opacity="1" fill="none" fill-rule="evenodd" transform="matrix(1 0 0 -1 3513.5 1539.5)"/></g><g><path d="M3499.5 1539.5 3513.5 1539.5M3499.5 1410.55 3513.5 1410.55M3499.5 1281.54 3513.5 1281.54M3499.5 1152.54 3513.5 1152.54M3499.5 1023.53 3513.5 1023.53M3499.5 894.5 3513.5 894.5" stroke="#898989" stroke-width="4.58333" stroke-linecap="butt" stroke-linejoin="round" stroke-miterlimit="10" stroke-opacity="1" fill="none" fill-rule="nonzero"/></g><g><path d="M3513.5 1539.5 4223.5 1539.5" stroke="#898989" stroke-width="4.58333" stroke-linecap="butt" stroke-linejoin="round" stroke-miterlimit="10" stroke-opacity="1" fill="none" fill-rule="evenodd"/></g><g><path d="M3513.5 1539.5 3513.5 1553.5M3695.62 1539.5 3695.62 1553.5M3877.63 1539.5 3877.63 1553.5M4059.5 1539.5 4059.5 1553.5" stroke="#898989" stroke-width="4.58333" stroke-linecap="butt" stroke-linejoin="round" stroke-miterlimit="10" stroke-opacity="1" fill="none" fill-rule="nonzero"/></g><g><path d="M3518 1475.05 3527.12 1539 3536.12 1475.05 3545.12 1410.05 3554.12 1346.04 3564.12 1475.05 3573.12 1539 3582.12 1475.05 3591.12 1475.05 3600.12 1410.05 3609.12 1539 3618.12 1346.04 3627.12 1410.05 3636.12 1410.05 3646.12 1410.05 3655.12 1475.05 3664.12 1475.05 3673.12 1217 3682.12 1346.04 3691.12 1281.04 3700.12 1410.05 3709.12 1475.05 3718.12 1346.04 3727.12 1281.04 3737.12 1410.05 3746.12 1475.05 3755.12 1410.05 3764.12 1475.05 3773.12 1475.05 3782.12 1410.05 3791.12 1475.05 3800.12 1539 3809.12 1475.05 3818.13 1539 3828.13 1475.05 3837.13 1475.05 3846.13 1539 3855.13 1539 3864.13 1539 3873.13 1539 3882.13 1410.05 3891.13 1539 3900.13 1410.05 3909.13 1475.05 3919.13 1475.05 3928.13 1475.05 3937.13 1281.04 3946.13 1475.05 3955.13 1475.05 3964.13 1539 3973.13 1346.04 3982.13 1346.04 3991.13 1410.05 4000.13 1410.05 4010.13 1281.04 4019.13 1410.05 4028.13 1410.05 4037.13 1475.05 4046.13 1475.05 4055.13 1475.05 4064.13 1475.05 4073.13 1539 4082.13 1281.04 4091.13 1475.05 4101.13 1539 4110.13 1539 4119.14 1539 4128.14 1346.04 4137.14 1410.05 4146.14 1475.05 4155.14 1346.04 4164.14 1346.04 4173.14 1475.05 4182.14 1475.05 4192.14 1475.05 4201.14 1475.05 4210.14 1217 4219 1346.04" stroke="#818181" stroke-width="13.75" stroke-linecap="round" stroke-linejoin="round" stroke-miterlimit="10" stroke-opacity="1" fill="none" fill-rule="nonzero"/></g><g><text fill="#000000" fill-opacity="1" font-family="Aptos,Aptos_MSFontService,sans-serif" font-style="normal" font-variant="normal" font-weight="400" font-stretch="normal" font-size="46" text-anchor="start" direction="ltr" writing-mode="lr-tb" unicode-bidi="normal" text-decoration="none" transform="matrix(1 0 0 1 3446.87 1551)">0</text></g><g><text fill="#000000" fill-opacity="1" font-family="Aptos,Aptos_MSFontService,sans-serif" font-style="normal" font-variant="normal" font-weight="400" font-stretch="normal" font-size="46" text-anchor="start" direction="ltr" writing-mode="lr-tb" unicode-bidi="normal" text-decoration="none" transform="matrix(1 0 0 1 3446.87 1422)">2</text></g><g><text fill="#000000" fill-opacity="1" font-family="Aptos,Aptos_MSFontService,sans-serif" font-style="normal" font-variant="normal" font-weight="400" font-stretch="normal" font-size="46" text-anchor="start" direction="ltr" writing-mode="lr-tb" unicode-bidi="normal" text-decoration="none" transform="matrix(1 0 0 1 3446.87 1293)">4</text></g><g><text fill="#000000" fill-opacity="1" font-family="Aptos,Aptos_MSFontService,sans-serif" font-style="normal" font-variant="normal" font-weight="400" font-stretch="normal" font-size="46" text-anchor="start" direction="ltr" writing-mode="lr-tb" unicode-bidi="normal" text-decoration="none" transform="matrix(1 0 0 1 3446.87 1164)">6</text></g><g><text fill="#000000" fill-opacity="1" font-family="Aptos,Aptos_MSFontService,sans-serif" font-style="normal" font-variant="normal" font-weight="400" font-stretch="normal" font-size="46" text-anchor="start" direction="ltr" writing-mode="lr-tb" unicode-bidi="normal" text-decoration="none" transform="matrix(1 0 0 1 3446.87 1035)">8</text></g><g><text fill="#000000" fill-opacity="1" font-family="Aptos,Aptos_MSFontService,sans-serif" font-style="normal" font-variant="normal" font-weight="400" font-stretch="normal" font-size="46" text-anchor="start" direction="ltr" writing-mode="lr-tb" unicode-bidi="normal" text-decoration="none" transform="matrix(1 0 0 1 3422.4 906)">10</text></g><g><text fill="#000000" fill-opacity="1" font-family="Aptos,Aptos_MSFontService,sans-serif" font-style="normal" font-variant="normal" font-weight="400" font-stretch="normal" font-size="46" text-anchor="start" direction="ltr" writing-mode="lr-tb" unicode-bidi="normal" text-decoration="none" transform="matrix(1 0 0 1 3505.98 1611)">1</text></g><g><text fill="#000000" fill-opacity="1" font-family="Aptos,Aptos_MSFontService,sans-serif" font-style="normal" font-variant="normal" font-weight="400" font-stretch="normal" font-size="46" text-anchor="start" direction="ltr" writing-mode="lr-tb" unicode-bidi="normal" text-decoration="none" transform="matrix(1 0 0 1 3675.75 1611)">21</text></g><g><text fill="#000000" fill-opacity="1" font-family="Aptos,Aptos_MSFontService,sans-serif" font-style="normal" font-variant="normal" font-weight="400" font-stretch="normal" font-size="46" text-anchor="start" direction="ltr" writing-mode="lr-tb" unicode-bidi="normal" text-decoration="none" transform="matrix(1 0 0 1 3857.76 1611)">41</text></g><g><text fill="#000000" fill-opacity="1" font-family="Aptos,Aptos_MSFontService,sans-serif" font-style="normal" font-variant="normal" font-weight="400" font-stretch="normal" font-size="46" text-anchor="start" direction="ltr" writing-mode="lr-tb" unicode-bidi="normal" text-decoration="none" transform="matrix(1 0 0 1 4039.76 1611)">61</text></g><g><text fill="#595959" fill-opacity="1" font-family="Aptos,Aptos_MSFontService,sans-serif" font-style="normal" font-variant="normal" font-weight="400" font-stretch="normal" font-size="46" text-anchor="start" direction="ltr" writing-mode="lr-tb" unicode-bidi="normal" text-decoration="none" transform="matrix(6.12323e-17 -1 1 6.12323e-17 3395.7 1381)">Arriving Users / s</text></g><g><text fill="#595959" fill-opacity="1" font-family="Aptos,Aptos_MSFontService,sans-serif" font-style="normal" font-variant="normal" font-weight="400" font-stretch="normal" font-size="46" text-anchor="start" direction="ltr" writing-mode="lr-tb" unicode-bidi="normal" text-decoration="none" transform="matrix(1 0 0 1 3791.29 1681)">Time (s)</text></g><g><text fill="#595959" fill-opacity="1" font-family="Aptos,Aptos_MSFontService,sans-serif" font-style="normal" font-variant="normal" font-weight="400" font-stretch="normal" font-size="64" text-anchor="start" direction="ltr" writing-mode="lr-tb" unicode-bidi="normal" text-decoration="none" transform="matrix(1 0 0 1 3674.16 819)">Realistic</text></g><rect x="3295.5" y="724.5" width="997" height="1027" stroke="#000000" stroke-width="4.58333" stroke-linecap="butt" stroke-linejoin="miter" stroke-miterlimit="8" stroke-opacity="1" fill="none"/></g></g></svg>